<svg width="28" height="23" viewBox="0 0 28 23" fill="none" xmlns="http://www.w3.org/2000/svg">
<path d="M2 10.0137C1.17157 10.0137 0.5 10.6852 0.5 11.5137C0.5 12.3421 1.17157 13.0137 2 13.0137L2 10.0137ZM27.0607 12.5743C27.6464 11.9885 27.6464 11.0388 27.0607 10.453L17.5147 0.90707C16.9289 0.321283 15.9792 0.321283 15.3934 0.90707C14.8076 1.49286 14.8076 2.4426 15.3934 3.02839L23.8787 11.5137L15.3934 19.999C14.8076 20.5847 14.8076 21.5345 15.3934 22.1203C15.9792 22.7061 16.9289 22.7061 17.5147 22.1203L27.0607 12.5743ZM2 11.5137L2 13.0137L26 13.0137V11.5137V10.0137L2 10.0137L2 11.5137Z" fill="black"/>
</svg>
